0
SECTION
2
HEADER
9
$INSUNITS
70
4
9
$ACADVER
1
AC1014
9
$HANDSEED
5
FFFF
0
ENDSEC
0
SECTION
2
TABLES
0
TABLE
2
VPORT
5
8
100
AcDbSymbolTable
0
ENDTAB
0
TABLE
2
LTYPE
5
5
100
AcDbSymbolTable
0
LTYPE
5
14
100
AcDbSymbolTableRecord
100
AcDbLinetypeTableRecord
2
BYBLOCK
70
0
0
LTYPE
5
15
100
AcDbSymbolTableRecord
100
AcDbLinetypeTableRecord
2
BYLAYER
70
0
0
ENDTAB
0
TABLE
2
LAYER
5
2
100
AcDbSymbolTable
70
2
0
LAYER
5
50
100
AcDbSymbolTableRecord
100
AcDbLayerTableRecord
2
0
70
0
6
CONTINUOUS
0
ENDTAB
0
TABLE
2
STYLE
5
3
100
AcDbSymbolTable
70
1
0
STYLE
5
11
100
AcDbSymbolTableRecord
100
AcDbTextStyleTableRecord
2
STANDARD
70
0
0
ENDTAB
0
TABLE
2
VIEW
5
6
100
AcDbSymbolTable
70
0
0
ENDTAB
0
TABLE
2
UCS
5
7
100
AcDbSymbolTable
70
0
0
ENDTAB
0
TABLE
2
APPID
5
9
100
AcDbSymbolTable
70
2
0
APPID
5
12
100
AcDbSymbolTableRecord
100
AcDbRegAppTableRecord
2
ACAD
70
0
0
ENDTAB
0
TABLE
2
DIMSTYLE
5
A
100
AcDbSymbolTable
70
1
0
ENDTAB
0
TABLE
2
BLOCK_RECORD
5
1
100
AcDbSymbolTable
70
1
0
BLOCK_RECORD
5
1F
100
AcDbSymbolTableRecord
100
AcDbBlockTableRecord
2
*MODEL_SPACE
0
BLOCK_RECORD
5
1B
100
AcDbSymbolTableRecord
100
AcDbBlockTableRecord
2
*PAPER_SPACE
0
ENDTAB
0
ENDSEC
0
SECTION
2
BLOCKS
0
BLOCK
5
20
100
AcDbEntity
100
AcDbBlockBegin
2
*MODEL_SPACE
0
ENDBLK
5
21
100
AcDbEntity
100
AcDbBlockEnd
0
BLOCK
5
1C
100
AcDbEntity
100
AcDbBlockBegin
2
*PAPER_SPACE
0
ENDBLK
5
1D
100
AcDbEntity
100
AcDbBlockEnd
0
ENDSEC
0
SECTION
2
ENTITIES
0
CIRCLE
5
100
100
AcDbEntity
8
0
100
AcDbCircle
10
150.15000000000001
20
192.5
30
0
40
1.7500000000000002
210
0
220
0
230
1
0
CIRCLE
5
101
100
AcDbEntity
8
0
100
AcDbCircle
10
77.530253405868805
20
192.5
30
0
40
1.7500000000000002
210
0
220
0
230
1
0
CIRCLE
5
102
100
AcDbEntity
8
0
100
AcDbCircle
10
192.5
20
150.15000000000001
30
0
40
1.7500000000000002
210
0
220
0
230
1
0
CIRCLE
5
103
100
AcDbEntity
8
0
100
AcDbCircle
10
192.5
20
20.780253405868997
30
0
40
1.7500000000000002
210
0
220
0
230
1
0
CIRCLE
5
104
100
AcDbEntity
8
0
100
AcDbCircle
10
192.5
20
-150.15000000000001
30
0
40
1.7500000000000002
210
0
220
-0
230
1
0
CIRCLE
5
105
100
AcDbEntity
8
0
100
AcDbCircle
10
20.780253405868901
20
-192.5
30
0
40
1.7500000000000002
210
0
220
-0
230
1
0
CIRCLE
5
106
100
AcDbEntity
8
0
100
AcDbCircle
10
-20.780253405868901
20
-192.5
30
0
40
1.7500000000000002
210
0
220
0
230
1
0
CIRCLE
5
107
100
AcDbEntity
8
0
100
AcDbCircle
10
-150.15000000000001
20
-192.5
30
0
40
1.7500000000000002
210
0
220
0
230
1
0
CIRCLE
5
108
100
AcDbEntity
8
0
100
AcDbCircle
10
-192.5
20
-150.15000000000001
30
0
40
1.7500000000000002
210
0
220
0
230
1
0
CIRCLE
5
109
100
AcDbEntity
8
0
100
AcDbCircle
10
-192.5
20
20.780253405868798
30
0
40
1.7500000000000002
210
0
220
-0
230
1
0
CIRCLE
5
110
100
AcDbEntity
8
0
100
AcDbCircle
10
-77.530253405868905
20
192.5
30
0
40
1.7500000000000002
210
0
220
-0
230
1
0
CIRCLE
5
111
100
AcDbEntity
8
0
100
AcDbCircle
10
-150.15000000000001
20
192.5
30
0
40
1.7500000000000002
210
0
220
-0
230
1
0
CIRCLE
5
112
100
AcDbEntity
8
0
100
AcDbCircle
10
-192.5
20
-20.780253405868798
30
0
40
1.7500000000000002
210
0
220
0
230
1
0
CIRCLE
5
113
100
AcDbEntity
8
0
100
AcDbCircle
10
-192.5
20
150.15000000000001
30
0
40
1.7500000000000002
210
0
220
-0
230
1
0
CIRCLE
5
114
100
AcDbEntity
8
0
100
AcDbCircle
10
150.15000000000001
20
-192.5
30
0
40
1.7500000000000002
210
0
220
-0
230
1
0
CIRCLE
5
115
100
AcDbEntity
8
0
100
AcDbCircle
10
192.5
20
-20.780253405868798
30
0
40
1.7500000000000002
210
0
220
-0
230
1
0
LWPOLYLINE
5
116
100
AcDbEntity
8
0
100
AcDbPolyline
90
56
70
1
43
0.0
10
172.62091964492666
20
183.0435622467196
42
0.29917225302439687
10
170.78509313880431
20
184.25
10
156.25
20
184.25000000000006
42
-0.41421356237309764
10
154.25
20
186.25
10
154.25
20
199.25
42
0.41421356237309503
10
152.25
20
201.25
10
72.480219240000395
20
201.25
42
0.4142135623730937
10
70.480219240000409
20
199.25
10
70.480219240000395
20
184.25
42
-0.41421356237309503
10
65.480219240000395
20
179.25
10
-65.479780759999215
20
179.24999999999997
42
-0.41421356237309453
10
-70.479780759999201
20
184.24999999999997
10
-70.479780759999201
20
199.24999999999997
42
0.41421356237309631
10
-72.479780759999215
20
201.24999999999997
10
-152.25
20
201.25
42
0.41421356237309503
10
-154.25
20
199.25
10
-154.25
20
186.25
42
-0.41421356237309764
10
-156.25
20
184.25
10
-170.78509313880573
20
184.25
42
0.29917225302438605
10
-172.62091964492805
20
183.04356224671972
42
-0.19096728119439785
10
-183.04356224671972
20
172.62091964492805
42
0.29917225302439343
10
-184.25000000000006
20
170.78509313880573
10
-184.25000000000006
20
156.25
42
-0.41421356237309764
10
-186.25
20
154.25
10
-199.25
20
154.25
42
0.41421356237309503
10
-201.25
20
152.25
10
-201.25
20
-152.25
42
0.41421356237309503
10
-199.25
20
-154.25
10
-186.25
20
-154.25
42
-0.41421356237309764
10
-184.25
20
-156.25
10
-184.25
20
-170.78509313880474
42
0.29917225302438605
10
-183.04356224671972
20
-172.62091964492703
42
-0.19096728119440834
10
-172.62091964492768
20
-183.0435622467196
42
0.29917225302439876
10
-170.78509313880531
20
-184.25
10
-156.25
20
-184.25000000000006
42
-0.41421356237309764
10
-154.25
20
-186.25
10
-154.25
20
-199.25
42
0.41421356237309503
10
-152.25
20
-201.25
10
152.25
20
-201.25
42
0.41421356237309503
10
154.25
20
-199.25
10
154.25
20
-186.25
42
-0.41421356237309764
10
156.25
20
-184.25
10
170.78509313880389
20
-184.25
42
0.29917225302439299
10
172.62091964492626
20
-183.04356224671952
42
-0.1909672811943951
10
183.04356224671687
20
-172.62091964492686
42
0.29917225302437028
10
184.24999999999696
20
-170.78509313880463
10
184.24999999999807
20
-156.25
42
-0.41421356237309764
10
186.24999999999801
20
-154.25
10
199.25
20
-154.25
42
0.41421356237309503
10
201.25
20
-152.25
10
201.25
20
152.25
42
0.41421356237309503
10
199.25
20
154.25
10
186.25
20
154.25
42
-0.41421356237309764
10
184.25
20
156.25
10
184.25
20
170.78509313880431
42
0.29917225302439687
10
183.0435622467196
20
172.62091964492666
42
-0.19096728119442213
0
ENDSEC
0
SECTION
2
OBJECTS
0
DICTIONARY
5
C
100
AcDbDictionary
3
ACAD_GROUP
350
D
3
ACAD_MLINESTYLE
350
17
0
DICTIONARY
5
D
100
AcDbDictionary
0
DICTIONARY
5
1A
330
C
100
AcDbDictionary
0
DICTIONARY
5
17
100
AcDbDictionary
0
ENDSEC
0
EOF
